<?xml version="1.0" encoding="UTF-8" standalone="no"?>
<!DOCTYPE svg PUBLIC "-//W3C//DTD SVG 20010904//EN"
              "http://www.w3.org/TR/2001/REC-SVG-20010904/DTD/svg10.dtd">

<svg xmlns="http://www.w3.org/2000/svg" viewBox="0 0 128 128">
  <path id="Auswahl"
        fill="white" stroke="black" stroke-width="1"
        d="M 8.00,10.00
           C 8.00,10.00 8.00,43.00 8.00,43.00
             8.00,43.00 42.00,43.00 42.00,43.00
             42.00,43.00 42.00,10.00 42.00,10.00
             42.00,10.00 8.00,10.00 8.00,10.00 Z
           M 47.00,10.00
           C 47.00,10.00 47.00,43.00 47.00,43.00
             47.00,43.00 81.00,43.00 81.00,43.00
             81.00,43.00 81.00,10.00 81.00,10.00
             81.00,10.00 47.00,10.00 47.00,10.00 Z
           M 87.00,10.00
           C 87.00,10.00 87.00,43.00 87.00,43.00
             87.00,43.00 121.00,43.00 121.00,43.00
             121.00,43.00 121.00,10.00 121.00,10.00
             121.00,10.00 87.00,10.00 87.00,10.00 Z
           M 8.00,48.00
           C 8.00,48.00 8.00,81.00 8.00,81.00
             8.00,81.00 42.00,81.00 42.00,81.00
             42.00,81.00 42.00,48.00 42.00,48.00
             42.00,48.00 8.00,48.00 8.00,48.00 Z
           M 47.00,48.00
           C 47.00,48.00 47.00,81.00 47.00,81.00
             47.00,81.00 81.00,81.00 81.00,81.00
             81.00,81.00 81.00,48.00 81.00,48.00
             81.00,48.00 47.00,48.00 47.00,48.00 Z
           M 87.00,48.00
           C 87.00,48.00 87.00,81.00 87.00,81.00
             87.00,81.00 121.00,81.00 121.00,81.00
             121.00,81.00 121.00,48.00 121.00,48.00
             121.00,48.00 87.00,48.00 87.00,48.00 Z
           M 8.00,86.00
           C 8.00,86.00 8.00,119.00 8.00,119.00
             8.00,119.00 42.00,119.00 42.00,119.00
             42.00,119.00 42.00,86.00 42.00,86.00
             42.00,86.00 8.00,86.00 8.00,86.00 Z
           M 47.00,86.00
           C 47.00,86.00 47.00,119.00 47.00,119.00
             47.00,119.00 81.00,119.00 81.00,119.00
             81.00,119.00 81.00,86.00 81.00,86.00
             81.00,86.00 47.00,86.00 47.00,86.00 Z
           M 87.00,86.00
           C 87.00,86.00 87.00,119.00 87.00,119.00
             87.00,119.00 121.00,119.00 121.00,119.00
             121.00,119.00 121.00,86.00 121.00,86.00
             121.00,86.00 87.00,86.00 87.00,86.00 Z" />
</svg>
