<?xml version="1.0" encoding="UTF-8" standalone="no"?>
<!DOCTYPE svg PUBLIC "-//W3C//DTD SVG 20010904//EN"
              "http://www.w3.org/TR/2001/REC-SVG-20010904/DTD/svg10.dtd">

<svg xmlns="http://www.w3.org/2000/svg" viewBox="0 0 128 128">
  <path id="Auswahl"
        fill="white" stroke="black" stroke-width="1"
        d="M 57.00,3.47
           C 26.10,10.83 30.04,57.25 62.00,57.99
             70.77,58.19 77.54,56.49 83.82,49.91
             96.33,36.78 92.50,13.33 76.00,5.40
             70.19,2.61 63.26,2.59 57.00,3.47 Z
           M 61.00,9.30
           C 65.14,8.98 68.13,9.31 72.00,10.95
             93.93,20.27 85.61,53.80 62.00,51.81
             44.20,50.32 35.84,29.49 47.53,16.18
             51.19,12.01 55.72,10.33 61.00,9.30 Z
           M 0.00,128.00
           C 0.00,128.00 4.00,128.00 4.00,128.00
             4.68,119.73 7.21,110.15 11.45,103.00
             31.25,69.59 71.92,61.68 102.00,86.46
             107.50,90.99 112.62,97.79 116.13,104.00
             119.99,110.87 122.36,120.16 123.00,128.00
             123.00,128.00 128.00,128.00 128.00,128.00
             128.00,128.00 128.00,111.00 128.00,111.00
             127.95,100.71 123.01,95.12 115.99,88.00
             102.74,74.58 83.97,66.22 65.00,66.00
             45.28,65.78 26.09,73.11 12.00,87.01
             4.27,94.65 0.02,98.94 0.00,110.00
             0.00,110.00 0.00,128.00 0.00,128.00 Z" />
</svg>
