<?xml version="1.0" encoding="UTF-8" standalone="no"?>
<!DOCTYPE svg PUBLIC "-//W3C//DTD SVG 20010904//EN"
              "http://www.w3.org/TR/2001/REC-SVG-20010904/DTD/svg10.dtd">

<svg xmlns="http://www.w3.org/2000/svg" viewBox="0 0 128 128">
  <path id="Auswahl"
        fill="white" stroke="black" stroke-width="1"
        d="M 57.00,3.47C26.10,10.83 30.04,57.25 62.00,57.99
             70.77,58.19 77.54,56.49 83.82,49.91
             96.33,36.78 92.50,13.33 76.00,5.40
             70.19,2.61 63.26,2.59 57.00,3.47 Z
           M 0.00,128.00
           C 0.00,128.00 128.00,128.00 128.00,128.00
             128.00,128.00 128.00,111.00 128.00,111.00
             127.95,100.71 123.01,95.12 115.99,88.00
             102.74,74.58 83.97,66.22 65.00,66.00
             45.28,65.78 26.09,73.11 12.00,87.01
             4.27,94.65 0.02,98.94 0.00,110.00
             0.00,110.00 0.00,128.00 0.00,128.00 Z" />
</svg>
