<?xml version="1.0" encoding="UTF-8" standalone="no"?>
<!DOCTYPE svg PUBLIC "-//W3C//DTD SVG 20010904//EN"
              "http://www.w3.org/TR/2001/REC-SVG-20010904/DTD/svg10.dtd">

<svg xmlns="http://www.w3.org/2000/svg" viewBox="0 0 128 128">
  <path id="Auswahl"
        fill="white" stroke="black" stroke-width="1"
        d="M 8.00,16.00
           C 8.00,16.00 8.00,44.00 8.00,44.00
             8.00,44.00 39.00,44.00 39.00,44.00
             39.00,44.00 39.00,16.00 39.00,16.00
             39.00,16.00 8.00,16.00 8.00,16.00 Z
           M 45.00,19.00
           C 45.00,19.00 45.00,41.00 45.00,41.00
             45.00,41.00 120.00,41.00 120.00,41.00
             120.00,41.00 120.00,19.00 120.00,19.00
             120.00,19.00 45.00,19.00 45.00,19.00 Z
           M 8.00,50.00
           C 8.00,50.00 8.00,78.00 8.00,78.00
             8.00,78.00 39.00,78.00 39.00,78.00
             39.00,78.00 39.00,50.00 39.00,50.00
             39.00,50.00 8.00,50.00 8.00,50.00 Z
           M 45.00,53.00
           C 45.00,53.00 45.00,75.00 45.00,75.00
             45.00,75.00 120.00,75.00 120.00,75.00
             120.00,75.00 120.00,53.00 120.00,53.00
             120.00,53.00 45.00,53.00 45.00,53.00 Z
           M 8.00,83.00
           C 8.00,83.00 8.00,111.00 8.00,111.00
             8.00,111.00 39.00,111.00 39.00,111.00
             39.00,111.00 39.00,83.00 39.00,83.00
             39.00,83.00 8.00,83.00 8.00,83.00 Z
           M 45.00,86.00
           C 45.00,86.00 45.00,108.00 45.00,108.00
             45.00,108.00 120.00,108.00 120.00,108.00
             120.00,108.00 120.00,86.00 120.00,86.00
             120.00,86.00 45.00,86.00 45.00,86.00 Z" />
</svg>
